<svg width="26" height="30" viewBox="0 0 26 30" fill="none" xmlns="http://www.w3.org/2000/svg">
<path d="M8.775 21.9375L13 17.7125L17.225 21.9375L19.5 19.6625L15.275 15.4375L19.5 11.2125L17.225 8.9375L13 13.1625L8.775 8.9375L6.5 11.2125L10.725 15.4375L6.5 19.6625L8.775 21.9375ZM4.875 29.25C3.98125 29.25 3.21642 28.932 2.5805 28.2961C1.9435 27.6591 1.625 26.8937 1.625 26V4.875H0V1.625H8.125V0H17.875V1.625H26V4.875H24.375V26C24.375 26.8937 24.057 27.6591 23.4211 28.2961C22.7841 28.932 22.0187 29.25 21.125 29.25H4.875ZM21.125 4.875H4.875V26H21.125V4.875ZM4.875 4.875V26V4.875Z" fill="white"/>
</svg>
