<svg width="28" height="35" viewBox="0 0 28 35" fill="none" xmlns="http://www.w3.org/2000/svg">
<path d="M1.75 34.7879C1.28587 34.7879 0.840752 34.6046 0.512563 34.2784C0.184375 33.9522 0 33.5098 0 33.0485V1.73939C0 1.27808 0.184375 0.835656 0.512563 0.509457C0.840752 0.183257 1.28587 0 1.75 0H26.25C26.7141 0 27.1593 0.183257 27.4874 0.509457C27.8156 0.835656 28 1.27808 28 1.73939V33.0485C28 33.5098 27.8156 33.9522 27.4874 34.2784C27.1593 34.6046 26.7141 34.7879 26.25 34.7879H1.75ZM19.25 24.3515L28 17.3939L19.25 10.4364V15.6545H8.75V19.1333H19.25V24.3515Z" fill="#AFF2F2"/>
</svg>
