<svg width="27" height="38" viewBox="0 0 27 38" fill="none" xmlns="http://www.w3.org/2000/svg">
<path d="M22.4125 25.9216C20.755 24.406 18.6872 23.3159 16.4185 22.7616V21.2208C18.3031 19.9644 19.6753 18.1729 20.3189 16.1283C20.4402 15.6218 20.5074 15.1058 20.5197 14.5875C21.268 11.7273 20.8714 8.71783 19.4012 6.10005C19.3746 4.3236 19.0457 2.56164 18.4261 0.876984C18.3852 0.803223 18.3286 0.73756 18.2597 0.683777C18.1908 0.629994 18.1109 0.589165 18.0245 0.563613C14.1184 -0.237588 10.0593 -0.183895 6.18027 0.720298C6.06237 0.741225 5.95462 0.795337 5.87229 0.874992C5.78996 0.954646 5.7372 1.05582 5.7214 1.16425C5.33671 3.00514 5.20183 4.8821 5.31986 6.75293C3.54177 9.99124 6.06556 16.285 6.18027 16.5462C6.23038 16.643 6.29821 16.7313 6.38096 16.8074C6.36704 16.8852 6.36704 16.9646 6.38096 17.0424C7.07127 18.6678 8.26731 20.0746 9.82245 21.0903V22.7616C7.02101 23.4494 4.54582 24.9572 2.77852 27.0527C1.01122 29.1481 0.0499437 31.7147 0.0429688 34.3568V37.4385C0.0429688 37.5839 0.106466 37.7234 0.219411 37.8263C0.332355 37.9291 0.485471 37.9869 0.645199 37.9869H25.7966C25.9563 37.9869 26.1095 37.9291 26.2224 37.8263C26.3354 37.7234 26.3988 37.5839 26.3988 37.4385V34.383C26.3875 32.8018 26.029 31.2386 25.3444 29.7855C24.6598 28.3324 23.663 27.0187 22.4125 25.9216ZM6.95457 1.84326C10.4285 1.0976 14.0383 1.04416 17.5371 1.68657C17.9844 3.01706 18.2352 4.39589 18.2827 5.78668C15.4149 6.02172 8.58925 6.30898 6.58173 6.38732C6.55036 4.86537 6.67519 3.34407 6.95457 1.84326ZM6.40967 7.51028C8.13039 7.51028 15.7303 7.11857 18.5982 6.8313C19.3493 8.04382 19.7536 9.40881 19.774 10.8008C19.4587 9.88692 19.0254 9.01029 18.4834 8.18929C18.3921 8.08019 18.2611 8.00441 18.1138 7.97568C17.9665 7.94694 17.8128 7.96714 17.6804 8.0326C15.4205 9.04142 12.9414 9.57681 10.4247 9.59952C10.6194 9.33589 10.7648 9.04466 10.8548 8.73771C10.8976 8.67022 10.9202 8.59366 10.9202 8.51573C10.9202 8.4378 10.8976 8.36124 10.8548 8.29375C10.8059 8.22872 10.7422 8.17406 10.668 8.1335C10.5938 8.09294 10.5107 8.06742 10.4247 8.0587C9.48947 8.03005 8.57066 8.2875 7.8149 8.78995C7.06925 9.26002 6.66774 11.4015 6.46699 13.334C5.75636 11.4557 5.68644 9.4255 6.26631 7.51028H6.40967ZM7.58551 16.964C7.52536 16.8661 7.44787 16.7778 7.35612 16.7029C7.27144 14.3748 7.63045 12.051 8.41722 9.83455C8.63351 9.67896 8.87549 9.55556 9.13419 9.46893C9.00676 9.63178 8.83992 9.76581 8.64661 9.86067C8.53364 9.92453 8.4471 10.0207 8.40041 10.134C8.35372 10.2474 8.34951 10.3717 8.38851 10.4874C8.41515 10.6002 8.48415 10.7011 8.5836 10.7725C8.68304 10.844 8.80674 10.8817 8.93342 10.8792C11.9493 10.9387 14.9464 10.432 17.7378 9.39059C18.6512 11.0197 19.2156 12.7923 19.4012 14.6137C19.4078 15.0697 19.3597 15.5251 19.2578 15.9717C18.5695 18.4265 15.8163 21.1947 13.3213 21.1947C12.0383 20.9758 10.833 20.4764 9.80889 19.7395C8.78478 19.0025 7.97259 18.0501 7.44215 16.964H7.58551ZM13.3213 22.1871C13.9819 22.1816 14.635 22.0574 15.2428 21.8215V22.5527C13.9607 22.8988 12.5958 22.8988 11.3137 22.5527H11.1704V21.6909C11.7949 21.9844 12.4774 22.1619 13.1779 22.2132L13.3213 22.1871ZM25.223 36.89H1.21881V34.2785C1.24099 31.8951 2.11922 29.5838 3.71937 27.6975C5.31951 25.8113 7.55362 24.4538 10.0806 23.8324L11.0556 23.6496C12.4917 24.0085 14.0074 24.0085 15.4435 23.6496H16.1604C18.7052 24.2494 20.9604 25.5996 22.5739 27.4893C24.1874 29.379 25.0685 31.702 25.0796 34.0957L25.223 36.89Z" fill="white"/>
<path d="M11.6865 4.1155V4.89895C11.6865 4.98899 11.7258 5.07535 11.7958 5.13902C11.8657 5.20269 11.9605 5.23846 12.0594 5.23846C12.1583 5.23846 12.2531 5.20269 12.323 5.13902C12.3929 5.07535 12.4322 4.98899 12.4322 4.89895V4.1155H13.2925C13.3914 4.1155 13.4862 4.07973 13.5562 4.01606C13.6261 3.95239 13.6654 3.86603 13.6654 3.77599C13.6654 3.68595 13.6261 3.59961 13.5562 3.53594C13.4862 3.47227 13.3914 3.4365 13.2925 3.4365H12.4322V2.65303C12.4322 2.56299 12.3929 2.47665 12.323 2.41298C12.2531 2.34931 12.1583 2.31354 12.0594 2.31354C11.9605 2.31354 11.8657 2.34931 11.7958 2.41298C11.7258 2.47665 11.6865 2.56299 11.6865 2.65303V3.4365H10.8262C10.7273 3.4365 10.6325 3.47227 10.5626 3.53594C10.4927 3.59961 10.4534 3.68595 10.4534 3.77599C10.4534 3.86603 10.4927 3.95239 10.5626 4.01606C10.6325 4.07973 10.7273 4.1155 10.8262 4.1155H11.6865Z" fill="white"/>
<path d="M13.0919 26.2089C12.9388 26.2089 12.789 26.2502 12.6617 26.3277C12.5343 26.4052 12.4352 26.5153 12.3765 26.6441C12.3179 26.773 12.3026 26.9147 12.3324 27.0515C12.3623 27.1883 12.436 27.3139 12.5443 27.4126C12.6526 27.5112 12.7906 27.5783 12.9408 27.6055C13.091 27.6328 13.2467 27.6188 13.3882 27.5654C13.5297 27.512 13.6507 27.4217 13.7357 27.3057C13.8208 27.1898 13.8662 27.0534 13.8662 26.914C13.8662 26.727 13.7847 26.5476 13.6395 26.4154C13.4943 26.2831 13.2973 26.2089 13.0919 26.2089Z" fill="white"/>
<path d="M13.0919 29.6562C12.9388 29.6562 12.789 29.6975 12.6617 29.775C12.5343 29.8525 12.4352 29.9626 12.3765 30.0915C12.3179 30.2203 12.3026 30.3621 12.3324 30.4989C12.3623 30.6356 12.436 30.7613 12.5443 30.8599C12.6526 30.9585 12.7906 31.0257 12.9408 31.0529C13.091 31.0801 13.2467 31.0661 13.3882 31.0127C13.5297 30.9594 13.6507 30.869 13.7357 30.753C13.8208 30.6371 13.8662 30.5008 13.8662 30.3613C13.8662 30.1743 13.7847 29.9949 13.6395 29.8627C13.4943 29.7305 13.2973 29.6562 13.0919 29.6562Z" fill="white"/>
<path d="M13.0919 32.999C12.9388 32.999 12.789 33.0403 12.6617 33.1178C12.5343 33.1953 12.4352 33.3054 12.3765 33.4342C12.3179 33.5631 12.3026 33.7049 12.3324 33.8416C12.3623 33.9784 12.436 34.1041 12.5443 34.2027C12.6526 34.3013 12.7906 34.3684 12.9408 34.3956C13.091 34.4229 13.2467 34.4089 13.3882 34.3555C13.5297 34.3021 13.6507 34.2118 13.7357 34.0958C13.8208 33.9799 13.8662 33.8435 13.8662 33.7041C13.8662 33.5171 13.7847 33.3377 13.6395 33.2055C13.4943 33.0732 13.2973 32.999 13.0919 32.999Z" fill="white"/>
</svg>
