<svg width="38" height="34" viewBox="0 0 38 34" fill="none" xmlns="http://www.w3.org/2000/svg">
<g clip-path="url(#clip0_10_64)">
<path d="M26.6875 4.25H-0.9375V25.5H26.6875V4.25ZM24.5625 23.375H1.1875V6.375H24.5625V23.375Z" fill="white"/>
<path d="M28.8125 9.5625V27.625H4.375V29.75H30.9375V9.5625H28.8125Z" fill="white"/>
<path d="M12.875 20.0852C15.5113 20.0852 17.6562 17.7519 17.6562 14.8839C17.6562 12.0159 15.5113 9.68256 12.875 9.68256C10.2387 9.68256 8.09375 12.0158 8.09375 14.8839C8.09375 17.752 10.2387 20.0852 12.875 20.0852ZM12.875 11.8076C14.3397 11.8076 15.5312 13.1876 15.5312 14.8839C15.5312 16.5802 14.3397 17.9602 12.875 17.9602C11.4103 17.9602 10.2188 16.5802 10.2188 14.8839C10.2188 13.1876 11.4103 11.8076 12.875 11.8076ZM3.3125 9.03125H5.4375V20.7188H3.3125V9.03125ZM20.3125 9.03125H22.4375V20.7188H20.3125V9.03125Z" fill="white"/>
</g>
<defs>
<clipPath id="clip0_10_64">
<rect width="37.3374" height="34" fill="white" transform="translate(0.65033)"/>
</clipPath>
</defs>
</svg>
