<svg width="50" height="27" viewBox="0 0 50 27" fill="none" xmlns="http://www.w3.org/2000/svg">
<path d="M42.1333 11.976H25.1948C24.1981 11.9684 23.2101 12.144 22.2897 12.4923C21.3694 12.8406 20.5356 13.3544 19.8384 14.003C19.1317 14.6418 18.5709 15.4017 18.1882 16.2388C17.8055 17.076 17.6083 17.9738 17.6083 18.8806C17.6083 19.7873 17.8055 20.6852 18.1882 21.5223C18.5709 22.3594 19.1317 23.1192 19.8384 23.7581C20.5385 24.401 21.3735 24.909 22.2938 25.2518C23.214 25.5946 24.2006 25.7652 25.1948 25.7535H42.2724C43.2738 25.7582 44.2662 25.5813 45.1917 25.2333C46.1173 24.8853 46.9575 24.3731 47.6635 23.7264C49.0766 22.4277 49.8756 20.6771 49.8896 18.8489C49.8806 17.9326 49.6723 17.027 49.2767 16.1844C48.8811 15.3419 48.306 14.579 47.5849 13.94C46.8637 13.3009 46.0107 12.7983 45.075 12.4612C44.1393 12.1241 43.1394 11.9592 42.1333 11.976ZM20.5341 22.998C19.6439 22.1737 19.043 21.127 18.8079 19.9909C18.5727 18.8548 18.7139 17.6808 19.2136 16.618C19.7132 15.5552 20.5487 14.6518 21.6138 14.0226C22.6789 13.3934 23.9254 13.0668 25.1948 13.0845H33.9249V24.7399H25.1948C24.3284 24.7555 23.4676 24.609 22.6659 24.3094C21.8642 24.0097 21.1386 23.5634 20.5341 22.998Z" fill="white"/>
<path d="M21.5078 1.08062C19.8235 0.106835 17.7869 -0.226377 15.8358 0.152665C13.8846 0.531708 12.1746 1.59274 11.0734 3.10765L1.68237 16.2517C0.600654 17.7793 0.224078 19.6336 0.634301 21.4125C1.04452 23.1913 2.20847 24.7511 3.87361 25.7534C5.09805 26.4998 6.53912 26.8968 8.0126 26.8936C8.55027 26.8879 9.08605 26.8348 9.61252 26.7352C10.586 26.5567 11.5099 26.201 12.3287 25.6894C13.1476 25.1778 13.8445 24.5209 14.3777 23.758L23.7337 10.709C24.2849 9.94458 24.6647 9.08842 24.8511 8.18985C25.0376 7.29128 25.027 6.36803 24.8201 5.47317C24.6132 4.57832 24.2141 3.72952 23.6456 2.97566C23.0772 2.22181 22.3506 1.57781 21.5078 1.08062ZM22.7252 10.0756L17.9601 16.7267L7.21259 10.3923L11.9777 3.58272C12.9002 2.28491 14.351 1.37393 16.011 1.05022C17.671 0.726503 19.4043 1.01657 20.8295 1.85658C22.2547 2.69658 23.2551 4.01772 23.6106 5.52938C23.9661 7.04104 23.6476 8.61939 22.7252 9.9172V10.0756Z" fill="white"/>
</svg>
