<svg width="37" height="37" viewBox="0 0 37 37" fill="none" xmlns="http://www.w3.org/2000/svg">
<path d="M16.65 27.75H20.35V20.35H27.75V16.65H20.35V9.25H16.65V16.65H9.25V20.35H16.65V27.75ZM18.5 37C15.9408 37 13.5358 36.5141 11.285 35.5422C9.03417 34.5716 7.07625 33.2538 5.41125 31.5888C3.74625 29.9238 2.42843 27.9658 1.4578 25.715C0.485934 23.4642 0 21.0592 0 18.5C0 15.9408 0.485934 13.5358 1.4578 11.285C2.42843 9.03417 3.74625 7.07625 5.41125 5.41125C7.07625 3.74625 9.03417 2.42782 11.285 1.45595C13.5358 0.485317 15.9408 0 18.5 0C21.0592 0 23.4642 0.485317 25.715 1.45595C27.9658 2.42782 29.9238 3.74625 31.5888 5.41125C33.2538 7.07625 34.5716 9.03417 35.5422 11.285C36.5141 13.5358 37 15.9408 37 18.5C37 21.0592 36.5141 23.4642 35.5422 25.715C34.5716 27.9658 33.2538 29.9238 31.5888 31.5888C29.9238 33.2538 27.9658 34.5716 25.715 35.5422C23.4642 36.5141 21.0592 37 18.5 37ZM18.5 33.3C22.6317 33.3 26.1312 31.8662 28.9987 28.9987C31.8662 26.1312 33.3 22.6317 33.3 18.5C33.3 14.3683 31.8662 10.8687 28.9987 8.00125C26.1312 5.13375 22.6317 3.7 18.5 3.7C14.3683 3.7 10.8687 5.13375 8.00125 8.00125C5.13375 10.8687 3.7 14.3683 3.7 18.5C3.7 22.6317 5.13375 26.1312 8.00125 28.9987C10.8687 31.8662 14.3683 33.3 18.5 33.3Z" fill="white"/>
</svg>
