<svg width="38" height="39" viewBox="0 0 38 39" fill="none" xmlns="http://www.w3.org/2000/svg">
<path fill-rule="evenodd" clip-rule="evenodd" d="M36.8736 15.9909L33.4958 14.6679C33.267 14.5877 33.0579 14.4584 32.8823 14.2885C32.7067 14.1186 32.5688 13.912 32.4781 13.6829C32.3873 13.4539 32.3458 13.2077 32.3562 12.9608C32.3667 12.7139 32.4291 12.4723 32.5389 12.2521L34.0026 8.91592C34.1447 8.56965 34.183 8.18812 34.1129 7.81953C34.0428 7.45094 33.8673 7.11193 33.6085 6.84531L31.3004 4.48699C31.0394 4.22259 30.7076 4.04312 30.3469 3.97145C29.9861 3.89978 29.6125 3.93909 29.2736 4.08432L26.0086 5.57988C25.7931 5.69207 25.5565 5.75559 25.3149 5.76629C25.0732 5.777 24.8322 5.73455 24.6081 5.64184C24.3839 5.54913 24.1818 5.40839 24.0155 5.22898C23.8492 5.04957 23.7226 4.83571 23.6442 4.60197L22.3494 1.15077C22.2075 0.812305 21.9721 0.523343 21.6723 0.319084C21.3724 0.114825 21.0209 0.00419446 20.6605 0.000487373H17.339C16.983 -0.00815883 16.6333 0.098426 16.3401 0.305041C16.0469 0.511656 15.8251 0.807617 15.7065 1.15077L14.4117 4.60197C14.3333 4.83571 14.2066 5.04957 14.0403 5.22898C13.874 5.40839 13.6719 5.54913 13.4478 5.64184C13.2236 5.73455 12.9826 5.777 12.741 5.76629C12.4994 5.75559 12.2628 5.69207 12.0473 5.57988L8.72585 4.08432C8.39686 3.93579 8.031 3.89481 7.6783 3.96688C7.32561 4.03896 7.00335 4.2206 6.75557 4.48699L4.39117 6.84531C4.14804 7.12195 3.98713 7.46366 3.92731 7.83041C3.86749 8.19716 3.91124 8.57367 4.05341 8.91592L5.51706 12.2521C5.60819 12.4785 5.65419 12.7211 5.65244 12.9659C5.65069 13.2106 5.60119 13.4524 5.50684 13.6773C5.41248 13.9023 5.27518 14.1058 5.10294 14.2759C4.9307 14.446 4.72696 14.5792 4.5037 14.6679L1.18229 15.9909C0.836108 16.1203 0.537189 16.3553 0.325783 16.6639C0.114377 16.9724 0.000712034 17.3397 0.000136337 17.7164V21.11C-0.0044755 21.4809 0.108025 21.8436 0.320973 22.1441C0.533921 22.4446 0.835929 22.6669 1.18229 22.7781L4.5037 24.1011C4.72696 24.1898 4.9307 24.323 5.10294 24.4931C5.27518 24.6632 5.41248 24.8667 5.50684 25.0917C5.60119 25.3166 5.65069 25.5586 5.65244 25.8033C5.65419 26.048 5.60819 26.2905 5.51706 26.5168L4.05341 29.9105C3.90886 30.2426 3.86376 30.6112 3.92387 30.9695C3.98399 31.3277 4.1466 31.6597 4.39117 31.9237L6.75557 34.3396C7.01394 34.5895 7.33891 34.7556 7.68956 34.817C8.04021 34.8784 8.40078 34.8324 8.72585 34.6847L12.0473 33.1891C12.2689 33.096 12.5063 33.049 12.7458 33.0508C12.9853 33.0526 13.2221 33.1032 13.4423 33.1996C13.6624 33.2961 13.8616 33.4363 14.028 33.6123C14.1945 33.7883 14.325 33.9963 14.4117 34.2244L15.7065 37.6182C15.8229 37.9674 16.0425 38.271 16.3349 38.4873C16.6273 38.7036 16.9781 38.822 17.339 38.8261H20.6605C21.0255 38.8104 21.3784 38.6883 21.6777 38.4743C21.9769 38.2603 22.2101 37.9632 22.3494 37.6182L23.6442 34.2244C23.731 33.9963 23.8614 33.7883 24.0278 33.6123C24.1943 33.4363 24.3934 33.2961 24.6136 33.1996C24.8337 33.1032 25.0705 33.0526 25.31 33.0508C25.5496 33.049 25.7871 33.096 26.0086 33.1891L29.2736 34.6847C29.6086 34.8299 29.9773 34.8746 30.3362 34.8135C30.6952 34.7524 31.0296 34.588 31.3004 34.3396L33.6085 31.9237C33.8692 31.6705 34.047 31.3412 34.1175 30.9809C34.1881 30.6205 34.148 30.2466 34.0026 29.9105L32.5389 26.5168C32.4291 26.2967 32.3667 26.0551 32.3562 25.8082C32.3458 25.5613 32.3873 25.3151 32.4781 25.0861C32.5688 24.857 32.7067 24.6506 32.8823 24.4806C33.0579 24.3107 33.267 24.1813 33.4958 24.1011L36.8736 22.7781C37.2094 22.6569 37.4992 22.4303 37.7015 22.1307C37.9037 21.8312 38.008 21.4738 37.9995 21.11V17.7164C37.9959 17.3482 37.8874 16.989 37.6875 16.6827C37.4876 16.3763 37.2048 16.1359 36.8736 15.9909ZM20.6605 27.8974C18.884 28.2569 17.0415 28.0233 15.4048 27.2311C13.7682 26.4389 12.4242 25.1301 11.5711 23.4978C10.7181 21.8656 10.4012 19.9964 10.6673 18.1661C10.9334 16.3358 11.7684 14.6413 13.0489 13.3329C14.3295 12.0245 15.9878 11.1715 17.7792 10.8996C19.5705 10.6278 21.4 10.9514 22.9975 11.823C24.595 12.6946 25.876 14.0678 26.6513 15.74C27.4266 17.4123 27.6553 19.2949 27.3034 21.11C26.9716 22.7832 26.1644 24.3193 24.9829 25.5265C23.8015 26.7336 22.2981 27.5584 20.6605 27.8974Z" fill="#AFF2F2"/>
</svg>
